<svg id="s_svg_id" style="shape-rendering:geometricPrecision; text-rendering:geometricPrecision; image-rendering:optimizeQuality; fill-rule:evenodd; clip-rule:evenodd" version="1.1" viewBox="0 0 512 512" xml:space="preserve" xmlns="http://www.w3.org/2000/svg" xmlns:xlink="http://www.w3.org/1999/xlink"><defs><style type="text/css">
   <![CDATA[
    #s_svg {fill:#2B2A29}
   ]]>
  </style></defs><g><path id="s_svg" d="M201 10l95 0 2 0 0 0 3 0 0 0 0 0 36 0 57 0 59 0 0 154 -116 0 0 0 -15 0 0 -28c0,-15 -12,-27 -26,-28l0 0 -65 0c-89,0 -105,108 -2,108l3 0 0 0 28 0 15 0c3,0 6,0 9,1 277,9 241,284 10,286l-95 0 -2 0 0 0 -3 0 0 0 0 0 -21 0 -72 0 -44 0 0 -154 116 0 0 0 0 28c0,15 12,27 26,28l0 0 65 0c89,0 105,-108 2,-108l-3 0 0 0 -28 0 -15 0c-3,0 -6,0 -9,-1 -277,-9 -241,-284 -10,-286z"/></g></svg>