<?xml version="1.0" ?><!DOCTYPE svg  PUBLIC '-//W3C//DTD SVG 1.1//EN'  'http://www.w3.org/Graphics/SVG/1.1/DTD/svg11.dtd'><svg height="43.3492mm" style="shape-rendering:geometricPrecision; text-rendering:geometricPrecision; image-rendering:optimizeQuality; fill-rule:evenodd; clip-rule:evenodd" version="1.1" viewBox="0 0 4335 4335" width="43.3492mm" xml:space="preserve" xmlns="http://www.w3.org/2000/svg" xmlns:xlink="http://www.w3.org/1999/xlink"><defs><style type="text/css">
   <![CDATA[
    .fil0 {fill:#35B1EA}
   ]]>
  </style></defs><g id="Слой_x0020_1"><path class="fil0" d="M3481 1554l388 -786c0,0 -685,-723 -1707,-723 -1022,0 -1697,723 -1697,723 333,777 2676,2411 2237,2529 -366,98 -704,98 -1070,0 -210,-57 -142,-405 -115,-516l-663 0 -388 786c0,0 685,723 1707,723 1022,0 1697,-723 1697,-723 -333,-777 -2676,-2411 -2237,-2529 366,-98 704,-98 1070,0 210,57 142,405 115,516l663 0z"/></g></svg>